<svg width="68" height="12" viewBox="0 0 68 12" fill="none" xmlns="http://www.w3.org/2000/svg">
    <path d="M61.4102 0C62.6582 0 63.1111 0.130042 63.5674 0.374023C64.0237 0.618053 64.3819 0.976321 64.626 1.43262C64.87 1.88887 65 2.34185 65 3.58984V7.91016C65 9.15815 64.87 9.61113 64.626 10.0674C64.3819 10.5237 64.0237 10.8819 63.5674 11.126C63.1111 11.37 62.6582 11.5 61.4102 11.5H46.5898C45.3418 11.5 44.8889 11.37 44.4326 11.126C43.9763 10.8819 43.6181 10.5237 43.374 10.0674C43.13 9.61113 43 9.15815 43 7.91016V3.58984C43 2.34185 43.13 1.88887 43.374 1.43262C43.6181 0.976321 43.9763 0.618053 44.4326 0.374023C44.8889 0.130042 45.3418 0 46.5898 0H61.4102ZM46.5898 1C45.603 1 45.2581 1.06668 44.9043 1.25586C44.6223 1.40669 44.4067 1.62227 44.2559 1.9043C44.0667 2.25812 44 2.60305 44 3.58984V7.91016C44 8.89695 44.0667 9.24188 44.2559 9.5957C44.4067 9.87773 44.6223 10.0933 44.9043 10.2441C45.2581 10.4333 45.603 10.5 46.5898 10.5H61.4102C62.397 10.5 62.7419 10.4333 63.0957 10.2441C63.3777 10.0933 63.5933 9.87773 63.7441 9.5957C63.9333 9.24188 64 8.89695 64 7.91016V3.58984C64 2.60305 63.9333 2.25812 63.7441 1.9043C63.5933 1.62227 63.3777 1.40669 63.0957 1.25586C62.7419 1.06668 62.397 1 61.4102 1H46.5898ZM66 3.69043C66.0184 3.69985 67.5 4.46155 67.5 5.69043C67.4997 6.92675 66 7.69043 66 7.69043V3.69043Z" fill="black" fill-opacity="0.36"/>
    <rect x="45" y="1.91667" width="18" height="7.66667" rx="1.6" fill="black"/>
    <path d="M2 7.1402C2.27879 7.1402 2.41826 7.1396 2.53418 7.16266C3.01021 7.25735 3.38187 7.62999 3.47656 8.10602C3.49961 8.22193 3.5 8.36144 3.5 8.6402V9.6402C3.5 9.91886 3.49961 10.0585 3.47656 10.1744C3.38178 10.6502 3.01005 11.0221 2.53418 11.1168C2.41826 11.1398 2.27879 11.1402 2 11.1402C1.72121 11.1402 1.58174 11.1398 1.46582 11.1168C0.98995 11.0221 0.618223 10.6502 0.523438 10.1744C0.500385 10.0585 0.5 9.91886 0.5 9.6402V8.6402C0.5 8.36144 0.500388 8.22193 0.523438 8.10602C0.618125 7.62999 0.989792 7.25735 1.46582 7.16266C1.58174 7.1396 1.72121 7.1402 2 7.1402ZM6.7998 5.1402C7.07845 5.1402 7.2181 5.13964 7.33398 5.16266C7.81001 5.25735 8.18266 5.62999 8.27734 6.10602C8.30036 6.2219 8.2998 6.36156 8.2998 6.6402V9.6402C8.2998 9.91886 8.3004 10.0585 8.27734 10.1744C8.1826 10.6503 7.80996 11.0221 7.33398 11.1168C7.21808 11.1398 7.07854 11.1402 6.7998 11.1402C6.52113 11.1402 6.38152 11.1398 6.26562 11.1168C5.78983 11.022 5.418 10.6502 5.32324 10.1744C5.30019 10.0585 5.2998 9.91886 5.2998 9.6402V6.6402C5.2998 6.36147 5.3002 6.22192 5.32324 6.10602C5.41792 5.63004 5.78968 5.2574 6.26562 5.16266C6.38152 5.13961 6.52113 5.1402 6.7998 5.1402ZM11.4004 2.84039C11.6789 2.84039 11.8187 2.83981 11.9346 2.86285C12.4104 2.95767 12.7823 3.33032 12.877 3.80621C12.8999 3.92207 12.9004 4.06185 12.9004 4.34039V9.6402C12.9004 9.91886 12.9 10.0585 12.877 10.1744C12.7822 10.6501 12.4103 11.0219 11.9346 11.1168C11.8187 11.1398 11.6789 11.1402 11.4004 11.1402C11.1218 11.1402 10.9821 11.1398 10.8662 11.1168C10.3903 11.0221 10.0176 10.6503 9.92285 10.1744C9.8998 10.0585 9.90039 9.91886 9.90039 9.6402V4.34039C9.90039 4.06188 9.89986 3.92206 9.92285 3.80621C10.0175 3.33018 10.3902 2.95754 10.8662 2.86285C10.9821 2.83987 11.1219 2.84039 11.4004 2.84039ZM16.0996 0.440002C16.3782 0.440002 16.5179 0.440427 16.6338 0.46344C17.1098 0.558126 17.4825 0.929807 17.5771 1.40582C17.6002 1.52174 17.5996 1.66121 17.5996 1.94V9.6402C17.5996 9.91886 17.6002 10.0585 17.5771 10.1744C17.4824 10.6503 17.1097 11.0221 16.6338 11.1168C16.5179 11.1398 16.3782 11.1402 16.0996 11.1402C15.8211 11.1402 15.6813 11.1398 15.5654 11.1168C15.0897 11.0219 14.7178 10.6501 14.623 10.1744C14.6 10.0585 14.5996 9.91886 14.5996 9.6402V1.94C14.5996 1.66121 14.6 1.52174 14.623 1.40582C14.7177 0.929996 15.0897 0.558287 15.5654 0.46344C15.6813 0.440393 15.8211 0.440002 16.0996 0.440002Z" fill="black"/>
    <path fill-rule="evenodd" clip-rule="evenodd" d="M30.3004 2.53636C32.5348 2.53646 34.6838 3.39501 36.3032 4.93457C36.4251 5.05343 36.62 5.05193 36.7401 4.93121L37.9058 3.75479C37.9666 3.69356 38.0005 3.61063 38 3.52433C37.9995 3.43803 37.9646 3.3555 37.9031 3.29498C33.6528 -0.778325 26.9474 -0.778325 22.6971 3.29498C22.6355 3.35545 22.6006 3.43796 22.6 3.52426C22.5994 3.61056 22.6333 3.69352 22.6941 3.75479L23.8601 4.93121C23.9801 5.05211 24.1751 5.05361 24.297 4.93457C25.9166 3.39491 28.0658 2.53636 30.3004 2.53636V2.53636ZM30.3004 6.36375C31.5281 6.36367 32.7119 6.81999 33.622 7.64403C33.745 7.76097 33.9389 7.75844 34.0589 7.63831L35.2232 6.46189C35.2845 6.40019 35.3186 6.31648 35.3177 6.22949C35.3168 6.14251 35.2811 6.05951 35.2185 5.99906C32.4474 3.42131 28.1558 3.42131 25.3847 5.99906C25.3221 6.05951 25.2864 6.14255 25.2856 6.22956C25.2847 6.31658 25.3189 6.40028 25.3803 6.46189L26.5443 7.63831C26.6643 7.75844 26.8582 7.76097 26.9813 7.64403C27.8907 6.82053 29.0736 6.36426 30.3004 6.36375V6.36375ZM32.538 9.17135C32.6002 9.11024 32.6345 9.02614 32.6327 8.93891C32.631 8.85168 32.5933 8.76905 32.5286 8.71053C31.2423 7.62263 29.3585 7.62263 28.0723 8.71053C28.0075 8.769 27.9698 8.85161 27.9679 8.93884C27.9661 9.02607 28.0003 9.11019 28.0625 9.17135L30.0769 11.2039C30.1359 11.2636 30.2164 11.2972 30.3004 11.2972C30.3844 11.2972 30.4649 11.2636 30.5239 11.2039L32.538 9.17135Z" fill="black"/>
</svg>
