<?xml version="1.0" encoding="UTF-8" standalone="no"?>
<svg width="414" height="896" viewBox="0 0 414 896" fill="none" xmlns="http://www.w3.org/2000/svg">
  <!-- 背景 -->
  <rect width="414" height="896" fill="#FAFAFA" />

  <!-- 手机屏幕主体 -->
  <rect x="20" y="20" width="374" height="856" rx="24" fill="#FFFFFF" />

  <!-- 状态栏 -->
  <g transform="translate(0, 3)">
    <text x="45" y="50" font-family="SF Pro Text, Arial, sans-serif" font-size="16" font-weight="600" fill="#000000">9:41</text>

    <!-- 信号图标 -->
    <g transform="translate(15, 20)">
      <path d="M312 28H314C314.5 28 315 27.5 315 27V19C315 18.5 314.5 18 314 18H312C311.5 18 311 18.5 311 19V27C311 27.5 311.5 28 312 28Z" fill="#000000"/>
      <path d="M307 28H309C309.5 28 310 27.5 310 27V21C310 20.5 309.5 20 309 20H307C306.5 20 306 20.5 306 21V27C306 27.5 306.5 28 307 28Z" fill="#000000"/>
      <path d="M302 28H304C304.5 28 305 27.5 305 27V23C305 22.5 304.5 22 304 22H302C301.5 22 301 22.5 301 23V27C301 27.5 301.5 28 302 28Z" fill="#000000"/>
      <path d="M297 28H299C299.5 28 300 27.5 300 27V25C300 24.5 299.5 24 299 24H297C296.5 24 296 24.5 296 25V27C296 27.5 296.5 28 297 28Z" fill="#000000"/>
    </g>

    <!-- WiFi图标 -->
    <g transform="translate(1, 20)">
      <path d="M344 16.33c2.2-2.2 5.21-3.33 8.25-3.33s6.05 1.13 8.25 3.33l-1.5 1.5c-1.91-1.91-4.34-2.83-6.75-2.83s-4.84.92-6.75 2.83l-1.5-1.5zm3 3c1.45-1.45 3.44-2.33 5.25-2.33s3.8.88 5.25 2.33l-1.5 1.5c-.95-.95-2.2-1.83-3.75-1.83s-2.8.88-3.75 1.83l-1.5-1.5zm3 3c.7-.7 1.66-1 2.25-1s1.55.3 2.25 1l-2.25 2.33-2.25-2.33z" fill="#000000" transform="translate(-10,3)" class="status-icon"/>
    </g>

    <!-- 电池图标 -->
    <g transform="translate(4, 20)">
      <rect x="355" y="15" width="26" height="13" rx="3" stroke="#000000" stroke-width="1" fill="none" class="battery-outline"/>
      <rect x="382" y="18" width="2" height="7" rx="1" fill="#000000" class="battery-outline"/>
      <rect x="357" y="17" width="22" height="9" rx="1" fill="#000000" class="battery-fill"/>
    </g>
  </g>


  <!-- 标题和导航 -->
  <g>
    <!-- 标题 -->
    <text x="207" y="127" font-family="SF Pro Display, Arial, sans-serif" font-size="20" font-weight="600" text-anchor="middle" fill="#1A1A2E">Projects</text>

    <!-- 添加按钮 -->
    <circle cx="369" cy="120" r="24" fill="#FFFFFF" stroke="#EEEEEE" stroke-width="1" />
    <path d="M369 110 v20 M359 120 h20" stroke="#333333" stroke-width="1.5" />
  </g>

  <!-- 搜索框 -->
  <rect x="40" y="170" width="334" height="44" rx="22" fill="#FFFFFF" stroke="#EEEEEE" stroke-width="1" />
  <circle cx="65" cy="192" r="12" stroke="#999999" stroke-width="1.5" fill="none" />
  <text x="95" y="197" font-family="SF Pro Text, Arial, sans-serif" font-size="16" fill="#999999">Search</text>

  <!-- 标签栏 -->
  <g>
    <!-- Favourites标签(选中) -->
    <rect x="40" y="240" width="110" height="36" rx="18" fill="#FFFFFF" stroke="#5E5CE6" stroke-width="1.5" />
    <text x="95" y="263" font-family="SF Pro Text, Arial, sans-serif" font-size="15" font-weight="500" text-anchor="middle" fill="#5E5CE6">Favourites</text>

    <!-- Recents标签 -->
    <text x="180" y="263" font-family="SF Pro Text, Arial, sans-serif" font-size="15" fill="#999999">Recents</text>

    <!-- All标签 -->
    <text x="245" y="263" font-family="SF Pro Text, Arial, sans-serif" font-size="15" fill="#999999">All</text>

    <!-- 网格图标 -->
    <g transform="translate(350, 254)">
      <rect x="0" y="0" width="8" height="8" rx="1" stroke="#999999" stroke-width="1.5" fill="none" />
      <rect x="11" y="0" width="8" height="8" rx="1" stroke="#999999" stroke-width="1.5" fill="none" />
      <rect x="0" y="11" width="8" height="8" rx="1" stroke="#999999" stroke-width="1.5" fill="none" />
      <rect x="11" y="11" width="8" height="8" rx="1" stroke="#999999" stroke-width="1.5" fill="none" />
    </g>
  </g>

  <!-- 项目卡片1 - Unity Dashboard -->
  <g>
    <rect x="40" y="300" width="334" height="100" rx="16" fill="#FFFFFF" stroke="#EEEEEE" stroke-width="1" />

    <!-- 项目信息 -->
    <text x="60" y="330" font-family="SF Pro Display, Arial, sans-serif" font-size="17" font-weight="600" fill="#1A1A2E">Unity Dashboard</text>
    <text x="210" y="330" font-family="Segoe UI Emoji, Apple Color Emoji, sans-serif" font-size="17">😊</text>
    <text x="60" y="355" font-family="SF Pro Text, Arial, sans-serif" font-size="15" fill="#999999">Design</text>

    <!-- 进度标签 -->
    <rect x="310" y="320" width="45" height="24" rx="12" fill="#FFFFFF" stroke="#DDDDDD" stroke-width="1" />
    <text x="332" y="335" font-family="SF Pro Text, Arial, sans-serif" font-size="12" text-anchor="middle" fill="#555555">10/20</text>

    <!-- 头像 -->
    <circle cx="70" cy="380" r="14" fill="#3498DB" />
    <circle cx="90" cy="380" r="14" fill="#E74C3C" />

    <!-- 进度条 -->
    <rect x="120" y="375" width="234" height="10" rx="5" fill="#F0F0F0" />
    <rect x="120" y="375" width="117" height="10" rx="5" fill="#AED581" />
  </g>

  <!-- 项目卡片2 - Instagram Shots -->
  <g>
    <rect x="40" y="415" width="334" height="100" rx="16" fill="#FFFFFF" stroke="#EEEEEE" stroke-width="1" />

    <!-- 项目信息 -->
    <text x="60" y="445" font-family="SF Pro Display, Arial, sans-serif" font-size="17" font-weight="600" fill="#1A1A2E">Instagram Shots</text>
    <text x="220" y="445" font-family="Segoe UI Emoji, Apple Color Emoji, sans-serif" font-size="17">✍️</text>
    <text x="60" y="470" font-family="SF Pro Text, Arial, sans-serif" font-size="15" fill="#999999">Marketing</text>

    <!-- 进度标签 -->
    <rect x="310" y="435" width="45" height="24" rx="12" fill="#FFFFFF" stroke="#DDDDDD" stroke-width="1" />
    <text x="332" y="450" font-family="SF Pro Text, Arial, sans-serif" font-size="12" text-anchor="middle" fill="#555555">10/20</text>

    <!-- 头像 -->
    <circle cx="70" cy="495" r="14" fill="#3498DB" />
    <circle cx="90" cy="495" r="14" fill="#E74C3C" />

    <!-- 进度条 -->
    <rect x="120" y="490" width="234" height="10" rx="5" fill="#F0F0F0" />
    <rect x="120" y="490" width="117" height="10" rx="5" fill="#FFD54F" />
  </g>

  <!-- 项目卡片3 - Cubbles -->
  <g>
    <rect x="40" y="530" width="334" height="100" rx="16" fill="#FFFFFF" stroke="#EEEEEE" stroke-width="1" />

    <!-- 项目信息 -->
    <text x="60" y="560" font-family="SF Pro Display, Arial, sans-serif" font-size="17" font-weight="600" fill="#1A1A2E">Cubbles</text>
    <text x="150" y="560" font-family="Segoe UI Emoji, Apple Color Emoji, sans-serif" font-size="17">😻</text>
    <text x="60" y="585" font-family="SF Pro Text, Arial, sans-serif" font-size="15" fill="#999999">Design</text>

    <!-- 进度标签 -->
    <rect x="310" y="550" width="45" height="24" rx="12" fill="#FFFFFF" stroke="#DDDDDD" stroke-width="1" />
    <text x="332" y="565" font-family="SF Pro Text, Arial, sans-serif" font-size="12" text-anchor="middle" fill="#555555">10/20</text>

    <!-- 头像 -->
    <circle cx="70" cy="610" r="14" fill="#3498DB" />
    <circle cx="90" cy="610" r="14" fill="#E74C3C" />

    <!-- 进度条 -->
    <rect x="120" y="605" width="234" height="10" rx="5" fill="#F0F0F0" />
    <rect x="120" y="605" width="117" height="10" rx="5" fill="#64B5F6" />
  </g>

  <!-- 项目卡片4 - Ui8 Platfrom -->
  <g>
    <rect x="40" y="645" width="334" height="100" rx="16" fill="#FFFFFF" stroke="#EEEEEE" stroke-width="1" />

    <!-- 项目信息 -->
    <text x="60" y="675" font-family="SF Pro Display, Arial, sans-serif" font-size="17" font-weight="600" fill="#1A1A2E">Ui8 Platfrom</text>
    <text x="180" y="675" font-family="Segoe UI Emoji, Apple Color Emoji, sans-serif" font-size="17">🤩</text>
    <text x="60" y="700" font-family="SF Pro Text, Arial, sans-serif" font-size="15" fill="#999999">Design</text>

    <!-- 进度标签 -->
    <rect x="310" y="665" width="45" height="24" rx="12" fill="#FFFFFF" stroke="#DDDDDD" stroke-width="1" />
    <text x="332" y="680" font-family="SF Pro Text, Arial, sans-serif" font-size="12" text-anchor="middle" fill="#555555">10/20</text>

    <!-- 头像 -->
    <circle cx="70" cy="725" r="14" fill="#3498DB" />
    <circle cx="90" cy="725" r="14" fill="#E74C3C" />

    <!-- 进度条 -->
    <rect x="120" y="720" width="234" height="10" rx="5" fill="#F0F0F0" />
    <rect x="120" y="720" width="117" height="10" rx="5" fill="#AED581" />
  </g>

  <!-- 底部导航栏 -->
  <g>
    <!-- 底部导航背景 -->
    <rect x="20" y="795" width="374" height="60" rx="20" fill="#FFFFFF" filter="drop-shadow(0px -2px 10px rgba(0, 0, 0, 0.05))" />

    <!-- 导航图标容器 - 三个图标平均分布 -->
    <g>
      <!-- 文件夹图标(选中状态) -->
      <g transform="translate(95, 825)">
        <!-- 移除背景圆圈 -->
        <g transform="translate(-12, -12) scale(1.1, 1.1)">
          <!-- 使用提供的SVG路径 -->
          <path fill-rule="evenodd" clip-rule="evenodd" d="M13.4499 4.8802H16.5199C20.2099 4.8802 22.0099 6.8502 21.9999 10.8902V15.7602C21.9999 19.6202 19.6199 22.0002 15.7499 22.0002H8.23989C4.38989 22.0002 1.99989 19.6202 1.99989 15.7502V8.2402C1.99989 4.1002 3.83989 2.0002 7.46989 2.0002H9.04989C9.98089 1.9902 10.8499 2.4202 11.4199 3.1502L12.2999 4.3202C12.5799 4.6702 12.9999 4.8802 13.4499 4.8802ZM7.36989 15.2902H16.6299C17.0399 15.2902 17.3699 14.9502 17.3699 14.5402C17.3699 14.1202 17.0399 13.7902 16.6299 13.7902H7.36989C6.94989 13.7902 6.61989 14.1202 6.61989 14.5402C6.61989 14.9502 6.94989 15.2902 7.36989 15.2902Z" fill="#756EF3"/>
        </g>
        <text x="0" y="25" font-family="SF Pro Text, Arial, sans-serif" font-size="10" text-anchor="middle" fill="#756EF3">Projects</text>
      </g>

      <!-- 统计图表图标 -->
      <g transform="translate(207, 825)">
        <g transform="translate(-10, -12) scale(0.9, 0.9)">
          <!-- 柱状图部分 -->
          <rect x="2" y="15" width="3" height="5" fill="#848A94" stroke="#848A94" stroke-width="0.5" />
          <rect x="7" y="12" width="3" height="8" fill="#848A94" stroke="#848A94" stroke-width="0.5" />
          <rect x="12" y="9" width="3" height="11" fill="#848A94" stroke="#848A94" stroke-width="0.5" />
          <rect x="17" y="4" width="3" height="16" fill="#848A94" stroke="#848A94" stroke-width="0.5" />

          <!-- 增长曲线 -->
          <path d="M2.5 15 C6 13 10 8 19 4" stroke="#848A94" stroke-width="1.5" fill="none" stroke-linecap="round" stroke-linejoin="round" />

          <!-- 箭头 -->
          <path d="M19 4 L17 5 L19 4 L18 6" stroke="#848A94" stroke-width="1.5" fill="none" stroke-linecap="round" stroke-linejoin="round" />

          <!-- 底线 -->
          <path d="M1 20 H21" stroke="#848A94" stroke-width="1.5" stroke-linecap="round" />
        </g>
        <text x="0" y="25" font-family="SF Pro Text, Arial, sans-serif" font-size="10" text-anchor="middle" fill="#848A94">Stats</text>
      </g>

      <!-- 个人图标 -->
      <g transform="translate(320, 825)">
        <g transform="translate(-10, -10) scale(0.9, 0.9)">
          <!-- 使用提供的SVG路径 -->
          <path fill-rule="evenodd" clip-rule="evenodd" d="M11.9848 15.3462C8.11714 15.3462 4.81429 15.931 4.81429 18.2729C4.81429 20.6148 8.09619 21.2205 11.9848 21.2205C15.8524 21.2205 19.1543 20.6348 19.1543 18.2938C19.1543 15.9529 15.8733 15.3462 11.9848 15.3462Z" stroke="#848A94" stroke-width="1.5" stroke-linecap="round" stroke-linejoin="round"/>
          <path fill-rule="evenodd" clip-rule="evenodd" d="M11.9848 12.0059C14.5229 12.0059 16.58 9.94782 16.58 7.40972C16.58 4.87163 14.5229 2.81448 11.9848 2.81448C9.44667 2.81448 7.38857 4.87163 7.38857 7.40972C7.38 9.93925 9.42381 11.9973 11.9524 12.0059H11.9848Z" stroke="#848A94" stroke-width="1.5" stroke-linecap="round" stroke-linejoin="round"/>
        </g>
        <text x="0" y="25" font-family="SF Pro Text, Arial, sans-serif" font-size="10" text-anchor="middle" fill="#848A94">Profile</text>
      </g>
    </g>
  </g>
</svg>
